<svg width="39" height="37" viewBox="0 0 39 37" fill="none" xmlns="http://www.w3.org/2000/svg">
<g clip-path="url(#clip0_30_63)">
<path d="M19.5 20.8125C25.5557 20.8125 30.4688 16.1514 30.4688 10.4062C30.4688 4.66113 25.5557 0 19.5 0C13.4443 0 8.53125 4.66113 8.53125 10.4062C8.53125 16.1514 13.4443 20.8125 19.5 20.8125ZM29.25 23.125H25.0529C23.3619 23.8621 21.4805 24.2812 19.5 24.2812C17.5195 24.2812 15.6457 23.8621 13.9471 23.125H9.75C4.36465 23.125 0 27.2658 0 32.375V33.5312C0 35.4463 1.6377 37 3.65625 37H35.3438C37.3623 37 39 35.4463 39 33.5312V32.375C39 27.2658 34.6354 23.125 29.25 23.125Z" fill="black"/>
</g>
<defs>
<clipPath id="clip0_30_63">
<rect width="39" height="37" fill="white"/>
</clipPath>
</defs>
</svg>
