<svg width="71" height="58" viewBox="0 0 71 58" fill="none" xmlns="http://www.w3.org/2000/svg">
<path d="M35.5079 14.4455C25.4341 14.4455 17.3085 21.0363 17.3085 29.2074C17.3085 37.3785 25.4341 43.9693 35.5079 43.9693C45.5818 43.9693 53.7074 37.3785 53.7074 29.2074C53.7074 21.0363 45.5818 14.4455 35.5079 14.4455ZM35.5079 38.8045C28.9979 38.8045 23.6759 34.5006 23.6759 29.2074C23.6759 23.9142 28.9821 19.6102 35.5079 19.6102C42.0337 19.6102 47.3399 23.9142 47.3399 29.2074C47.3399 34.5006 42.0179 38.8045 35.5079 38.8045ZM58.6968 13.8416C58.6968 15.7559 56.796 17.2848 54.4518 17.2848C52.0918 17.2848 50.2069 15.7431 50.2069 13.8416C50.2069 11.9402 52.1076 10.3985 54.4518 10.3985C56.796 10.3985 58.6968 11.9402 58.6968 13.8416ZM70.7505 17.3362C70.4813 12.7239 69.1824 8.63833 65.0167 5.27226C60.8668 1.90618 55.8298 0.852675 50.1435 0.621417C44.2829 0.351617 26.7171 0.351617 20.8565 0.621417C15.186 0.839827 10.1491 1.89333 5.98332 5.25941C1.81757 8.62549 0.534579 12.711 0.24947 17.3233C-0.0831567 22.0769 -0.0831567 36.325 0.24947 41.0786C0.51874 45.6909 1.81757 49.7764 5.98332 53.1425C10.1491 56.5086 15.1702 57.5621 20.8565 57.7933C26.7171 58.0631 44.2829 58.0631 50.1435 57.7933C55.8298 57.5749 60.8668 56.5214 65.0167 53.1425C69.1666 49.7764 70.4654 45.6909 70.7505 41.0786C71.0832 36.325 71.0832 22.0898 70.7505 17.3362ZM63.1793 46.1791C61.9438 48.6972 59.5521 50.6372 56.4317 51.6522C51.7591 53.1553 40.6716 52.8085 35.5079 52.8085C30.3443 52.8085 19.2409 53.1425 14.5841 51.6522C11.4796 50.6501 9.08784 48.7101 7.83653 46.1791C5.98332 42.389 6.41099 33.3957 6.41099 29.2074C6.41099 25.0191 5.99916 16.0129 7.83653 12.2357C9.072 9.71753 11.4637 7.77754 14.5841 6.76258C19.2567 5.25941 30.3443 5.60629 35.5079 5.60629C40.6716 5.60629 51.775 5.27226 56.4317 6.76258C59.5363 7.76469 61.928 9.70469 63.1793 12.2357C65.0325 16.0257 64.6049 25.0191 64.6049 29.2074C64.6049 33.3957 65.0325 42.4019 63.1793 46.1791Z" fill="black"/>
</svg>
