<svg width="39" height="35" viewBox="0 0 39 35" fill="none" xmlns="http://www.w3.org/2000/svg">
<path d="M35.7581 20.3314L38.9589 6.53268C39.19 5.53639 38.4171 4.58767 37.3743 4.58767H10.7797L10.1591 1.61498C10.0045 0.874031 9.33901 0.341919 8.56707 0.341919H1.625C0.727526 0.341919 0 1.05474 0 1.93407V2.99551C0 3.87485 0.727526 4.58767 1.625 4.58767H6.35666L11.113 27.3711C9.97513 28.0122 9.20834 29.2145 9.20834 30.5929C9.20834 32.6446 10.9059 34.3079 13 34.3079C15.0941 34.3079 16.7917 32.6446 16.7917 30.5929C16.7917 29.5531 16.3552 28.6136 15.6525 27.9393H29.8474C29.1449 28.6136 28.7083 29.5531 28.7083 30.5929C28.7083 32.6446 30.4059 34.3079 32.5 34.3079C34.5941 34.3079 36.2917 32.6446 36.2917 30.5929C36.2917 29.122 35.419 27.8509 34.1535 27.249L34.5271 25.6385C34.7581 24.6423 33.9853 23.6935 32.9425 23.6935H14.7683L14.3252 21.5707H34.1736C34.9323 21.5707 35.59 21.0563 35.7581 20.3314Z" fill="black"/>
</svg>
