<svg width="42" height="33" viewBox="0 0 42 33" fill="none" xmlns="http://www.w3.org/2000/svg">
<path d="M41.9765 13.5537V14.7323C41.9765 15.7086 41.1997 16.5001 40.2415 16.5001H39.6632L37.7754 29.9643C37.5312 31.7062 36.0671 33 34.3403 33H7.97236C6.24551 33 4.78145 31.7062 4.53717 29.9643L2.64948 16.5001H2.07114C1.1129 16.5001 0.336121 15.7086 0.336121 14.7323V13.5537C0.336121 12.5773 1.1129 11.7858 2.07114 11.7858H6.93938L14.6588 0.970977C15.4102 -0.0817751 16.8569 -0.314615 17.8903 0.451083C18.9236 1.21678 19.152 2.69094 18.4005 3.74377L12.6603 11.7858H29.6523L23.9121 3.7437C23.1606 2.69094 23.3891 1.21671 24.4224 0.451009C25.4555 -0.314689 26.9025 -0.0819224 27.654 0.970904L35.3733 11.7858H40.2415C41.1997 11.7858 41.9765 12.5773 41.9765 13.5537ZM22.8913 26.5179V18.268C22.8913 17.2916 22.1146 16.5001 21.1563 16.5001C20.1981 16.5001 19.4213 17.2916 19.4213 18.268V26.5179C19.4213 27.4943 20.1981 28.2857 21.1563 28.2857C22.1146 28.2857 22.8913 27.4943 22.8913 26.5179ZM30.9881 26.5179V18.268C30.9881 17.2916 30.2113 16.5001 29.2531 16.5001C28.2948 16.5001 27.518 17.2916 27.518 18.268V26.5179C27.518 27.4943 28.2948 28.2857 29.2531 28.2857C30.2113 28.2857 30.9881 27.4943 30.9881 26.5179ZM14.7946 26.5179V18.268C14.7946 17.2916 14.0178 16.5001 13.0596 16.5001C12.1013 16.5001 11.3246 17.2916 11.3246 18.268V26.5179C11.3246 27.4943 12.1013 28.2857 13.0596 28.2857C14.0178 28.2857 14.7946 27.4943 14.7946 26.5179Z" fill="black" fill-opacity="0.77"/>
</svg>
