<svg width="36" height="29" viewBox="0 0 36 29" fill="none" xmlns="http://www.w3.org/2000/svg">
<g filter="url(#filter0_d_16_90)">
<path d="M31.6192 17.9827L26.1665 14.0504C25.9204 13.8729 25.5867 13.7743 25.2367 13.7743H24.3452C25.8547 12.382 26.7517 10.6308 26.7517 8.72579C26.7517 4.19397 21.6599 0.521973 15.3758 0.521973C9.09178 0.521973 4 4.19397 4 8.72579C4 13.2576 9.09178 16.9296 15.3758 16.9296C18.0174 16.9296 20.4457 16.2828 22.3763 15.1942V15.8371C22.3763 16.0895 22.5131 16.3301 22.7592 16.5076L28.2119 20.4399C28.726 20.8106 29.5573 20.8106 30.066 20.4399L31.6137 19.3237C32.1278 18.953 32.1278 18.3534 31.6192 17.9827ZM15.3758 13.7743C11.5091 13.7743 8.37532 11.5182 8.37532 8.72579C8.37532 5.93728 11.5037 3.67729 15.3758 3.67729C19.2425 3.67729 22.3763 5.93334 22.3763 8.72579C22.3763 11.5143 19.248 13.7743 15.3758 13.7743Z" fill="black"/>
<path d="M31.6192 17.9827L26.1665 14.0504C25.9204 13.8729 25.5867 13.7743 25.2367 13.7743H24.3452C25.8547 12.382 26.7517 10.6308 26.7517 8.72579C26.7517 4.19397 21.6599 0.521973 15.3758 0.521973C9.09178 0.521973 4 4.19397 4 8.72579C4 13.2576 9.09178 16.9296 15.3758 16.9296C18.0174 16.9296 20.4457 16.2828 22.3763 15.1942V15.8371C22.3763 16.0895 22.5131 16.3301 22.7592 16.5076L28.2119 20.4399C28.726 20.8106 29.5573 20.8106 30.066 20.4399L31.6137 19.3237C32.1278 18.953 32.1278 18.3534 31.6192 17.9827ZM15.3758 13.7743C11.5091 13.7743 8.37532 11.5182 8.37532 8.72579C8.37532 5.93728 11.5037 3.67729 15.3758 3.67729C19.2425 3.67729 22.3763 5.93334 22.3763 8.72579C22.3763 11.5143 19.248 13.7743 15.3758 13.7743Z" fill="black" fill-opacity="0.2"/>
<path d="M24.0062 13.4068L23.0657 14.2743H24.3452H25.2367C25.4992 14.2743 25.7262 14.3493 25.874 14.4559L31.3247 18.3867C31.325 18.387 31.3254 18.3872 31.3257 18.3875C31.4738 18.4958 31.5002 18.5974 31.5 18.6518C31.4998 18.7061 31.473 18.8088 31.3213 18.9182L29.7735 20.0343L29.7714 20.0358C29.6182 20.1475 29.3919 20.218 29.141 20.218C28.8903 20.218 28.6614 20.1476 28.5044 20.0344L23.0516 16.102C22.9072 15.9978 22.8763 15.8964 22.8763 15.8371V15.1942V14.3383L22.1308 14.7586C20.2805 15.8019 17.9379 16.4296 15.3758 16.4296C12.327 16.4296 9.58808 15.5381 7.62386 14.1216C5.65897 12.7046 4.5 10.7905 4.5 8.72579C4.5 6.66106 5.65897 4.74699 7.62386 3.32999C9.58808 1.91347 12.327 1.02197 15.3758 1.02197C18.4247 1.02197 21.1636 1.91347 23.1278 3.32999C25.0927 4.74699 26.2517 6.66106 26.2517 8.72579C26.2517 10.4638 25.4351 12.0889 24.0062 13.4068ZM7.87532 8.72579C7.87532 10.3231 8.77266 11.7222 10.1332 12.7028C11.4943 13.6839 13.3495 14.2743 15.3758 14.2743C17.405 14.2743 19.2603 13.6828 20.6207 12.7012C21.9806 11.72 22.8763 10.3209 22.8763 8.72579C22.8763 7.12847 21.979 5.7294 20.6185 4.74875C19.2574 3.76771 17.4022 3.17729 15.3758 3.17729C13.3466 3.17729 11.4914 3.76874 10.1309 4.75038C8.77109 5.73159 7.87532 7.13063 7.87532 8.72579Z" stroke="#A99F9F" stroke-opacity="0.81"/>
</g>
<defs>
<filter id="filter0_d_16_90" x="0" y="0.521973" width="36" height="28.196" filterUnits="userSpaceOnUse" color-interpolation-filters="sRGB">
<feFlood flood-opacity="0" result="BackgroundImageFix"/>
<feColorMatrix in="SourceAlpha" type="matrix" values="0 0 0 0 0 0 0 0 0 0 0 0 0 0 0 0 0 0 127 0" result="hardAlpha"/>
<feOffset dy="4"/>
<feGaussianBlur stdDeviation="2"/>
<feComposite in2="hardAlpha" operator="out"/>
<feColorMatrix type="matrix" values="0 0 0 0 0 0 0 0 0 0 0 0 0 0 0 0 0 0 0.25 0"/>
<feBlend mode="normal" in2="BackgroundImageFix" result="effect1_dropShadow_16_90"/>
<feBlend mode="normal" in="SourceGraphic" in2="effect1_dropShadow_16_90" result="shape"/>
</filter>
</defs>
</svg>
