<svg width="43" height="33" viewBox="0 0 43 33" fill="none" xmlns="http://www.w3.org/2000/svg">
<path d="M42.1438 13.5537V14.7323C42.1438 15.7086 41.3752 16.5001 40.4271 16.5001H39.8549L37.9871 29.9643C37.7455 31.7062 36.297 33 34.5884 33H8.49981C6.79125 33 5.3427 31.7062 5.10101 29.9643L3.23331 16.5001H2.6611C1.71301 16.5001 0.944458 15.7086 0.944458 14.7323V13.5537C0.944458 12.5773 1.71301 11.7858 2.6611 11.7858H7.47777L15.1154 0.970977C15.8589 -0.0817751 17.2903 -0.314615 18.3127 0.451083C19.335 1.21678 19.561 2.69094 18.8175 3.74377L13.1381 11.7858H29.9501L24.2707 3.7437C23.5272 2.69094 23.7533 1.21671 24.7756 0.451009C25.7978 -0.314689 27.2294 -0.0819224 27.9729 0.970904L35.6105 11.7858H40.4271C41.3752 11.7858 42.1438 12.5773 42.1438 13.5537ZM23.2607 26.5179V18.268C23.2607 17.2916 22.4922 16.5001 21.5441 16.5001C20.596 16.5001 19.8275 17.2916 19.8275 18.268V26.5179C19.8275 27.4943 20.596 28.2857 21.5441 28.2857C22.4922 28.2857 23.2607 27.4943 23.2607 26.5179ZM31.2717 26.5179V18.268C31.2717 17.2916 30.5032 16.5001 29.5551 16.5001C28.607 16.5001 27.8384 17.2916 27.8384 18.268V26.5179C27.8384 27.4943 28.607 28.2857 29.5551 28.2857C30.5032 28.2857 31.2717 27.4943 31.2717 26.5179ZM15.2498 26.5179V18.268C15.2498 17.2916 14.4812 16.5001 13.5331 16.5001C12.585 16.5001 11.8165 17.2916 11.8165 18.268V26.5179C11.8165 27.4943 12.585 28.2857 13.5331 28.2857C14.4812 28.2857 15.2498 27.4943 15.2498 26.5179Z" fill="black" fill-opacity="0.77"/>
</svg>
