<svg width="42" height="33" viewBox="0 0 42 33" fill="none" xmlns="http://www.w3.org/2000/svg">
<path d="M41.8403 13.5537V14.7323C41.8403 15.7086 41.066 16.5001 40.1108 16.5001H39.5343L37.6524 29.9643C37.409 31.7062 35.9496 33 34.2282 33H7.9434C6.222 33 4.76255 31.7062 4.51904 29.9643L2.6373 16.5001H2.06078C1.10557 16.5001 0.331238 15.7086 0.331238 14.7323V13.5537C0.331238 12.5773 1.10557 11.7858 2.06078 11.7858H6.91367L14.6087 0.970977C15.3578 -0.0817751 16.8 -0.314615 17.8301 0.451083C18.8601 1.21678 19.0878 2.69094 18.3387 3.74377L12.6166 11.7858H29.555L23.8329 3.7437C23.0838 2.69094 23.3116 1.21671 24.3416 0.451009C25.3714 -0.314689 26.8138 -0.0819224 27.5629 0.970904L35.2579 11.7858H40.1108C41.066 11.7858 41.8403 12.5773 41.8403 13.5537ZM22.8153 26.5179V18.268C22.8153 17.2916 22.041 16.5001 21.0858 16.5001C20.1306 16.5001 19.3562 17.2916 19.3562 18.268V26.5179C19.3562 27.4943 20.1306 28.2857 21.0858 28.2857C22.041 28.2857 22.8153 27.4943 22.8153 26.5179ZM30.8865 26.5179V18.268C30.8865 17.2916 30.1122 16.5001 29.157 16.5001C28.2018 16.5001 27.4274 17.2916 27.4274 18.268V26.5179C27.4274 27.4943 28.2018 28.2857 29.157 28.2857C30.1122 28.2857 30.8865 27.4943 30.8865 26.5179ZM14.7441 26.5179V18.268C14.7441 17.2916 13.9698 16.5001 13.0146 16.5001C12.0594 16.5001 11.285 17.2916 11.285 18.268V26.5179C11.285 27.4943 12.0594 28.2857 13.0146 28.2857C13.9698 28.2857 14.7441 27.4943 14.7441 26.5179Z" fill="black" fill-opacity="0.77"/>
</svg>
