<svg width="23" height="22" viewBox="0 0 23 22" fill="none" xmlns="http://www.w3.org/2000/svg">
<path d="M15.8595 11L22.3982 4.74562C23.2006 3.97812 23.2006 2.73375 22.3982 1.96562L20.945 0.575625C20.1426 -0.191875 18.8417 -0.191875 18.0387 0.575625L11.5 6.83L4.96134 0.575625C4.15895 -0.191875 2.85801 -0.191875 2.05497 0.575625L0.60179 1.96562C-0.200597 2.73312 -0.200597 3.9775 0.60179 4.74562L7.14045 11L0.60179 17.2544C-0.200597 18.0219 -0.200597 19.2662 0.60179 20.0344L2.05497 21.4244C2.85736 22.1919 4.15895 22.1919 4.96134 21.4244L11.5 15.17L18.0387 21.4244C18.8411 22.1919 20.1426 22.1919 20.945 21.4244L22.3982 20.0344C23.2006 19.2669 23.2006 18.0225 22.3982 17.2544L15.8595 11Z" fill="black"/>
</svg>
