<svg width="43" height="33" viewBox="0 0 43 33" fill="none" xmlns="http://www.w3.org/2000/svg">
<path d="M42.1834 13.5537V14.7323C42.1834 15.7086 41.4091 16.5001 40.4538 16.5001H39.8773L37.9955 29.9643C37.7521 31.7062 36.2926 33 34.5712 33H8.28648C6.56507 33 5.10563 31.7062 4.86212 29.9643L2.98038 16.5001H2.40386C1.44865 16.5001 0.674316 15.7086 0.674316 14.7323V13.5537C0.674316 12.5773 1.44865 11.7858 2.40386 11.7858H7.25675L14.9518 0.970977C15.7009 -0.0817751 17.143 -0.314615 18.1731 0.451083C19.2031 1.21678 19.4309 2.69094 18.6818 3.74377L12.9596 11.7858H29.8981L24.1759 3.7437C23.4268 2.69094 23.6546 1.21671 24.6847 0.451009C25.7145 -0.314689 27.1569 -0.0819224 27.906 0.970904L35.601 11.7858H40.4538C41.4091 11.7858 42.1834 12.5773 42.1834 13.5537ZM23.1584 26.5179V18.268C23.1584 17.2916 22.3841 16.5001 21.4289 16.5001C20.4736 16.5001 19.6993 17.2916 19.6993 18.268V26.5179C19.6993 27.4943 20.4736 28.2857 21.4289 28.2857C22.3841 28.2857 23.1584 27.4943 23.1584 26.5179ZM31.2296 26.5179V18.268C31.2296 17.2916 30.4553 16.5001 29.5001 16.5001C28.5449 16.5001 27.7705 17.2916 27.7705 18.268V26.5179C27.7705 27.4943 28.5449 28.2857 29.5001 28.2857C30.4553 28.2857 31.2296 27.4943 31.2296 26.5179ZM15.0872 26.5179V18.268C15.0872 17.2916 14.3129 16.5001 13.3576 16.5001C12.4024 16.5001 11.6281 17.2916 11.6281 18.268V26.5179C11.6281 27.4943 12.4024 28.2857 13.3576 28.2857C14.3129 28.2857 15.0872 27.4943 15.0872 26.5179Z" fill="black" fill-opacity="0.77"/>
</svg>
