<svg width="68" height="48" viewBox="0 0 68 48" fill="none" xmlns="http://www.w3.org/2000/svg">
<path d="M66.5791 7.67161C65.797 4.77029 63.4928 2.4853 60.5672 1.70985C55.2642 0.300781 34 0.300781 34 0.300781C34 0.300781 12.7359 0.300781 7.43284 1.70985C4.50719 2.48542 2.20298 4.77029 1.42093 7.67161C0 12.9304 0 23.9024 0 23.9024C0 23.9024 0 34.8745 1.42093 40.1333C2.20298 43.0346 4.50719 45.2244 7.43284 45.9998C12.7359 47.4089 34 47.4089 34 47.4089C34 47.4089 55.2641 47.4089 60.5672 45.9998C63.4928 45.2244 65.797 43.0346 66.5791 40.1333C68 34.8745 68 23.9024 68 23.9024C68 23.9024 68 12.9304 66.5791 7.67161ZM27.0454 33.8642V13.9407L44.8181 23.9027L27.0454 33.8642Z" fill="black"/>
</svg>
