<svg width="71" height="58" viewBox="0 0 71 58" fill="none" xmlns="http://www.w3.org/2000/svg">
<path d="M35.5079 14.814C25.4341 14.814 17.3085 21.3339 17.3085 29.4169C17.3085 37.5 25.4341 44.0198 35.5079 44.0198C45.5818 44.0198 53.7074 37.5 53.7074 29.4169C53.7074 21.3339 45.5818 14.814 35.5079 14.814ZM35.5079 38.9107C28.9979 38.9107 23.6759 34.6531 23.6759 29.4169C23.6759 24.1807 28.9821 19.9231 35.5079 19.9231C42.0337 19.9231 47.3399 24.1807 47.3399 29.4169C47.3399 34.6531 42.0179 38.9107 35.5079 38.9107ZM58.6968 14.2167C58.6968 16.1104 56.796 17.6228 54.4518 17.6228C52.0918 17.6228 50.2069 16.0977 50.2069 14.2167C50.2069 12.3357 52.1076 10.8106 54.4518 10.8106C56.796 10.8106 58.6968 12.3357 58.6968 14.2167ZM70.7505 17.6736C70.4813 13.111 69.1824 9.06945 65.0167 5.73963C60.8668 2.40981 55.8298 1.36766 50.1435 1.13889C44.2829 0.871997 26.7171 0.871997 20.8565 1.13889C15.186 1.35495 10.1491 2.3971 5.98332 5.72692C1.81757 9.05674 0.534579 13.0983 0.24947 17.6609C-0.0831567 22.3633 -0.0831567 36.4578 0.24947 41.1602C0.51874 45.7229 1.81757 49.7644 5.98332 53.0942C10.1491 56.424 15.1702 57.4662 20.8565 57.6949C26.7171 57.9618 44.2829 57.9618 50.1435 57.6949C55.8298 57.4789 60.8668 56.4367 65.0167 53.0942C69.1666 49.7644 70.4654 45.7229 70.7505 41.1602C71.0832 36.4578 71.0832 22.376 70.7505 17.6736ZM63.1793 46.2058C61.9438 48.6968 59.5521 50.6159 56.4317 51.6199C51.7591 53.1069 40.6716 52.7638 35.5079 52.7638C30.3443 52.7638 19.2409 53.0942 14.5841 51.6199C11.4796 50.6286 9.08784 48.7095 7.83653 46.2058C5.98332 42.4566 6.41099 33.5601 6.41099 29.4169C6.41099 25.2737 5.99916 16.3645 7.83653 12.628C9.072 10.137 11.4637 8.21793 14.5841 7.2139C19.2567 5.72692 30.3443 6.07007 35.5079 6.07007C40.6716 6.07007 51.775 5.73963 56.4317 7.2139C59.5363 8.20522 61.928 10.1243 63.1793 12.628C65.0325 16.3773 64.6049 25.2737 64.6049 29.4169C64.6049 33.5601 65.0325 42.4693 63.1793 46.2058Z" fill="black"/>
</svg>
