<svg width="43" height="33" viewBox="0 0 43 33" fill="none" xmlns="http://www.w3.org/2000/svg">
<path d="M42.473 13.5537V14.7323C42.473 15.7086 41.6986 16.5001 40.7434 16.5001H40.1669L38.2851 29.9643C38.0417 31.7062 36.5822 33 34.8608 33H8.57606C6.85466 33 5.39521 31.7062 5.1517 29.9643L3.26996 16.5001H2.69344C1.73823 16.5001 0.963898 15.7086 0.963898 14.7323V13.5537C0.963898 12.5773 1.73823 11.7858 2.69344 11.7858H7.54633L15.2414 0.970977C15.9905 -0.0817751 17.4326 -0.314615 18.4627 0.451083C19.4927 1.21678 19.7205 2.69094 18.9713 3.74377L13.2492 11.7858H30.1877L24.4655 3.7437C23.7164 2.69094 23.9442 1.21671 24.9742 0.451009C26.0041 -0.314689 27.4465 -0.0819224 28.1956 0.970904L35.8905 11.7858H40.7434C41.6986 11.7858 42.473 12.5773 42.473 13.5537ZM23.448 26.5179V18.268C23.448 17.2916 22.6736 16.5001 21.7184 16.5001C20.7632 16.5001 19.9889 17.2916 19.9889 18.268V26.5179C19.9889 27.4943 20.7632 28.2857 21.7184 28.2857C22.6736 28.2857 23.448 27.4943 23.448 26.5179ZM31.5192 26.5179V18.268C31.5192 17.2916 30.7449 16.5001 29.7896 16.5001C28.8344 16.5001 28.0601 17.2916 28.0601 18.268V26.5179C28.0601 27.4943 28.8344 28.2857 29.7896 28.2857C30.7449 28.2857 31.5192 27.4943 31.5192 26.5179ZM15.3768 26.5179V18.268C15.3768 17.2916 14.6024 16.5001 13.6472 16.5001C12.692 16.5001 11.9177 17.2916 11.9177 18.268V26.5179C11.9177 27.4943 12.692 28.2857 13.6472 28.2857C14.6024 28.2857 15.3768 27.4943 15.3768 26.5179Z" fill="black" fill-opacity="0.77"/>
</svg>
