<svg width="68" height="48" viewBox="0 0 68 48" fill="none" xmlns="http://www.w3.org/2000/svg">
<path d="M66.5791 8.02703C65.797 5.15696 63.4928 2.89658 60.5672 2.12949C55.2642 0.735596 34 0.735596 34 0.735596C34 0.735596 12.7359 0.735596 7.43284 2.12949C4.50719 2.8967 2.20298 5.15696 1.42093 8.02703C0 13.2292 0 24.083 0 24.083C0 24.083 0 34.9369 1.42093 40.139C2.20298 43.0091 4.50719 45.1753 7.43284 45.9424C12.7359 47.3363 34 47.3363 34 47.3363C34 47.3363 55.2641 47.3363 60.5672 45.9424C63.4928 45.1753 65.797 43.0091 66.5791 40.139C68 34.9369 68 24.083 68 24.083C68 24.083 68 13.2292 66.5791 8.02703ZM27.0454 33.9375V14.2286L44.8181 24.0833L27.0454 33.9375Z" fill="black"/>
</svg>
