<svg width="26" height="23" viewBox="0 0 26 23" fill="none" xmlns="http://www.w3.org/2000/svg">
<path d="M24.6295 8.3159L17.6874 7.40513L14.5851 1.7469C14.3062 1.2413 13.7622 0.985718 13.2182 0.985718C12.6775 0.985718 12.1373 1.23788 11.8575 1.7469L8.75422 7.40471L1.81164 8.31462C0.566647 8.47703 0.0676996 9.85708 0.970263 10.6477L5.99246 15.0499L4.8039 21.2676C4.63506 22.1557 5.4219 22.8681 6.30312 22.8681C6.53694 22.8681 6.7774 22.8181 7.00838 22.7079L13.2191 19.7725L19.4294 22.7087C19.6599 22.8177 19.8999 22.8673 20.1328 22.8673C21.0149 22.8673 21.8032 22.1574 21.6344 21.2688L20.4472 15.0507L25.4704 10.6495C26.3734 9.85878 25.8745 8.47831 24.6295 8.3159ZM18.8555 13.5814L17.9961 14.3344L18.1991 15.3978L19.1249 20.2465L14.2811 17.9561L13.2196 17.4544L13.221 3.89796L15.6413 8.31248L16.1716 9.27967L17.3577 9.43524L22.7755 10.146L18.8555 13.5814Z" fill="#D0DE2C"/>
</svg>
