<svg width="42" height="34" viewBox="0 0 42 34" fill="none" xmlns="http://www.w3.org/2000/svg">
<path d="M41.8979 13.8798V15.0867C41.8979 16.0866 41.1294 16.8971 40.1813 16.8971H39.6091L37.7413 30.6853C37.4997 32.469 36.0511 33.794 34.3426 33.794H8.25396C6.5454 33.794 5.09685 32.469 4.85516 30.6853L2.98746 16.8971H2.41525C1.46716 16.8971 0.698608 16.0866 0.698608 15.0867V13.8798C0.698608 12.8799 1.46716 12.0694 2.41525 12.0694H7.23192L14.8695 0.994339C15.613 -0.0837426 17.0444 -0.322185 18.0668 0.461936C19.0892 1.24606 19.3152 2.75569 18.5717 3.83385L12.8922 12.0694H29.7043L24.0249 3.83377C23.2813 2.75569 23.5074 1.24598 24.5298 0.461861C25.5519 -0.32226 26.9836 -0.0838934 27.7271 0.994264L35.3646 12.0694H40.1813C41.1294 12.0694 41.8979 12.8799 41.8979 13.8798ZM23.0149 27.1559V18.7075C23.0149 17.7076 22.2463 16.8971 21.2983 16.8971C20.3502 16.8971 19.5816 17.7076 19.5816 18.7075V27.1559C19.5816 28.1558 20.3502 28.9663 21.2983 28.9663C22.2463 28.9663 23.0149 28.1558 23.0149 27.1559ZM31.0259 27.1559V18.7075C31.0259 17.7076 30.2573 16.8971 29.3092 16.8971C28.3612 16.8971 27.5926 17.7076 27.5926 18.7075V27.1559C27.5926 28.1558 28.3612 28.9663 29.3092 28.9663C30.2573 28.9663 31.0259 28.1558 31.0259 27.1559ZM15.0039 27.1559V18.7075C15.0039 17.7076 14.2354 16.8971 13.2873 16.8971C12.3392 16.8971 11.5706 17.7076 11.5706 18.7075V27.1559C11.5706 28.1558 12.3392 28.9663 13.2873 28.9663C14.2354 28.9663 15.0039 28.1558 15.0039 27.1559Z" fill="black" fill-opacity="0.77"/>
</svg>
